<svg width="843" height="394" viewBox="0 0 843 394" fill="none" xmlns="http://www.w3.org/2000/svg">
<g clip-path="url(#clip0_11_2)">
<path d="M825.526 370.711C589.588 269.497 377.962 274.877 241.976 297.209C94.6143 321.412 1.85987 370.184 0.940434 370.675L3.8147e-06 368.909C0.921884 368.418 93.9067 319.514 241.569 295.25C328.342 280.998 416.581 277.905 504.139 286.046C613.529 296.225 721.924 324.091 826.315 368.873L825.526 370.711Z" fill="#F2F2F2"/>
<path d="M280.902 184.81L225.035 140.569C222.674 138.688 221.147 135.954 220.784 132.957C220.421 129.959 221.251 126.94 223.094 124.549C224.048 123.312 225.244 122.282 226.609 121.523C227.973 120.763 229.479 120.289 231.032 120.131C232.586 119.972 234.156 120.131 235.646 120.598C237.136 121.066 238.516 121.832 239.7 122.85L296.323 170.584L331.952 198.138C333.748 197.127 335.812 196.693 337.863 196.896C339.914 197.098 341.853 197.928 343.417 199.271C344.98 200.613 346.093 202.405 346.602 204.402C347.112 206.399 346.995 208.505 346.266 210.433C345.538 212.361 344.233 214.018 342.53 215.179C340.827 216.34 338.808 216.948 336.747 216.921C334.686 216.895 332.683 216.234 331.011 215.03C329.338 213.825 328.077 212.135 327.399 210.189L280.902 184.81Z" fill="#945E4C"/>
<path d="M232.354 154.718C231.618 154.819 230.87 154.675 230.223 154.31C229.577 153.944 229.068 153.376 228.776 152.694C228.399 151.858 227.77 151.161 226.978 150.7C226.824 150.613 226.664 150.535 226.5 150.469C225.5 150.093 224.606 149.48 223.894 148.684C223.181 147.889 222.671 146.932 222.407 145.897C221.588 142.478 218.96 139.161 216.319 136.602C213.429 133.803 210.344 131.118 208.209 127.709C205.128 122.79 204.264 115.887 210.208 111.783C212.763 110.077 215.828 109.304 218.887 109.594C225.29 110.115 230.585 114.022 235.615 117.809L234.356 115.337C239.778 119.568 245.998 122.661 252.644 124.429C251.494 125.475 252.491 127.566 253.967 128.052C255.443 128.538 257.034 128.026 258.555 127.703C260.471 127.296 262.84 127.331 263.596 129.619C263.761 130.171 263.811 130.752 263.741 131.324C263.671 131.897 263.484 132.448 263.191 132.945C257.852 142.445 250.605 150.739 241.907 157.304C239.975 158.761 237.731 160.195 235.327 159.91C232.924 159.625 230.879 156.637 232.354 154.718Z" fill="#008236"/>
<path d="M188.066 216.472L182.851 191.335L237.661 174.07L230.28 231.933L188.066 216.472Z" fill="#945E4C"/>
<path d="M236.142 194L183.319 216.781C183.319 216.781 176.529 216.482 176.529 212.38C176.529 208.278 180.325 207.419 175.35 204.259C170.376 201.099 168.325 203.15 169.35 198.022C170.376 192.895 171.402 191.199 171.402 189.996C171.402 188.792 170.376 183.665 170.376 178.537C170.376 176.051 178.363 171.537 176.376 156.969C173.955 139.22 174.804 112.058 191.913 106.748L204.219 85.2119H227.678L234.986 106.748L243.648 118.101C243.648 118.101 260.735 139.708 255.608 150.989C250.48 162.271 236.142 194 236.142 194Z" fill="#2F2E41"/>
<path d="M340.518 228.158C340.426 209.85 337.393 191.676 331.535 174.33C329.853 169.353 327.942 164.463 325.801 159.661C325.016 157.896 322.319 159.211 323.104 160.977C330.381 177.347 334.986 194.778 336.745 212.605C337.248 217.701 337.508 222.81 337.527 227.933C337.537 229.851 340.528 230.092 340.518 228.158Z" fill="#3F3D56"/>
<path d="M325.49 157.334L327.186 162.364C312.78 160.927 311.052 142.79 301.566 131.859C292.073 120.94 274.93 117.336 275.523 102.875C275.612 100.784 275.942 98.4426 277.584 97.1367C279.637 95.522 282.638 96.3175 285.049 97.3184C287.595 98.3837 290.066 99.6216 292.443 101.023C293.194 103.024 293.944 105.025 294.691 107.026C294.944 107.712 295.386 108.313 295.965 108.759C296.545 109.205 297.239 109.478 297.967 109.547C298.695 109.616 299.428 109.477 300.081 109.147C300.733 108.818 301.28 108.31 301.656 107.683L301.693 107.619C330.387 107.576 333.676 131.143 325.49 157.334Z" fill="#008236"/>
<path d="M326.251 163.029C319.202 165.819 313.251 159.876 306.211 157.07C299.162 154.254 291.093 154.611 287.89 147.731C287.602 147.261 287.417 146.736 287.346 146.19C287.275 145.644 287.319 145.089 287.476 144.561C288.041 143.31 289.631 142.968 290.994 142.85C292.893 142.699 294.801 142.718 296.696 142.908C297.155 143.734 297.604 144.57 298.062 145.407C298.839 146.819 299.605 148.231 300.381 149.643C301.785 148.07 302.937 146.289 303.797 144.364C316.78 138.937 322.439 148.583 324.251 161.093L326.251 163.029Z" fill="#008236"/>
<path d="M324.297 162.882C330.849 166.694 337.622 161.707 345.002 159.985C352.392 158.254 360.318 159.813 364.513 153.489C364.868 153.067 365.129 152.576 365.281 152.047C365.433 151.517 365.473 150.962 365.396 150.417C365.024 149.095 363.503 148.52 362.173 148.199C360.319 147.766 358.429 147.5 356.527 147.404C355.949 148.152 355.381 148.912 354.802 149.671C353.824 150.951 352.855 152.232 351.876 153.512C350.723 151.747 349.85 149.814 349.288 147.782C337.262 140.477 330.225 149.168 326.564 161.267L324.297 162.882Z" fill="#008236"/>
<path d="M324.425 163.144C331.525 160.488 331.956 152.088 335.298 145.287C338.639 138.471 344.865 133.325 342.629 126.074C342.527 125.532 342.312 125.019 341.999 124.566C341.685 124.113 341.28 123.731 340.81 123.444C339.552 122.895 338.143 123.708 337.053 124.534C335.543 125.695 334.14 126.988 332.861 128.399C333.074 129.321 333.302 130.242 333.523 131.17C333.894 132.738 334.271 134.299 334.642 135.867C332.546 135.642 330.497 135.093 328.569 134.241C315.298 138.92 317.567 149.871 324.611 160.367L324.425 163.144Z" fill="#008236"/>
<path d="M206.148 63.5059C223.391 76.6224 242.593 87.0614 246.212 101.496C246.212 101.496 244.044 78.816 254.158 83.1149C271.151 90.3381 265.402 51.0559 260.636 44.6324C252.694 33.9267 225.912 27.8435 225.912 27.8435L206.914 38.273L206.148 63.5059Z" fill="#2F2E41"/>
<path d="M236.173 79.4228C252.619 79.4228 265.951 66.0904 265.951 49.6439C265.951 33.1975 252.619 19.865 236.173 19.865C219.726 19.865 206.394 33.1975 206.394 49.6439C206.394 66.0904 219.726 79.4228 236.173 79.4228Z" fill="#945E4C"/>
<path d="M225.448 38.25L224.302 43.2831L244.334 47.8434C244.352 46.8255 244.58 45.8222 245.004 44.8966C245.427 43.9709 246.038 43.1429 246.797 42.4644C246.365 44.4379 246.414 46.4865 246.941 48.437C257.744 54.4991 257.123 56.6467 265.855 55.1008C267.038 55.3701 268.279 55.1585 269.306 54.5125C270.333 53.8664 271.061 52.8389 271.33 51.656C274.843 36.2247 275.998 20.4528 260.642 16.6225C256.909 15.6892 253.028 15.5106 249.226 16.097C245.423 16.6833 241.776 18.023 238.498 20.0374C235.22 22.0518 232.377 24.7003 230.137 27.8277C227.896 30.9551 226.302 34.4984 225.448 38.25Z" fill="#2F2E41"/>
<path d="M230.348 58.3306C231.328 54.0319 233.251 50.0045 235.977 46.5389C238.703 43.0733 242.164 40.2559 246.11 38.29C250.057 36.3241 254.391 35.2586 258.799 35.1706C263.207 35.0825 267.58 35.9739 271.602 37.7806C270.209 33.6688 267.389 30.1919 263.654 27.9794L241.106 18.1901C229.984 15.6581 212.378 8.47171 204.344 15.3536C196.943 21.6756 200.545 34.0509 193.73 40.9816C186.26 48.5771 185.626 57.5581 187.744 62.7238C190.195 68.6999 195.097 76.8531 201.215 78.6178C201.534 76.5146 202.583 74.5908 204.179 73.1842C203.738 75.1886 203.699 77.2606 204.066 79.2799L241.106 108.822C237.647 105.813 234.699 98.0599 232.669 89.3278C231.468 84.1591 224.299 82.345 230.113 73.5728C235.927 64.8005 229.558 61.7986 230.348 58.3306Z" fill="#2F2E41"/>
<path d="M200.681 25.3806L200.785 25.5884C200.912 25.8655 201.039 26.1426 201.143 26.4312L201.154 26.4428C201.72 26.6506 202.355 26.3158 202.978 25.7847C202.881 27.0332 202.812 28.2414 202.76 29.4255L222.479 21.7091C219.05 22.3011 218.542 10.0998 216.083 12.4378C215.944 12.5648 215.817 12.6918 215.69 12.8188C215.996 12.0832 216.206 11.3109 216.314 10.5213C216.419 9.53022 216.34 8.52827 216.083 7.56558C216.078 7.56102 216.075 7.55555 216.073 7.54956C216.071 7.54356 216.07 7.53718 216.071 7.53091C215.826 6.66041 215.444 5.83427 214.94 5.08322C214.213 3.99092 213.294 3.04019 212.226 2.27763C210.865 1.23708 209.277 0.531794 207.592 0.218882C205.907 -0.0940299 204.172 -0.00577748 202.528 0.476496C198.761 1.90142 195.648 4.65769 193.776 8.22363C192.218 11.0293 191.029 14.1812 191.271 17.3794C191.342 18.2271 191.524 19.0618 191.814 19.8617C192.174 20.9851 192.788 22.0102 193.609 22.8573C194.43 23.7044 195.436 24.3506 196.547 24.7456C196.824 24.8379 197.148 24.9418 197.494 25.0688C197.679 23.5665 197.69 22.0479 197.529 20.5429C198.812 21.991 199.875 23.6212 200.681 25.3806Z" fill="#2F2E41"/>
<path d="M219.777 20.9241C219.752 21.5681 219.674 22.209 219.546 22.8406C219.537 22.9224 219.521 23.0034 219.5 23.0831C218.692 26.6738 214.316 19.2038 210.933 21.7092C208.324 23.6373 206.881 24.0414 204.006 25.1729C203.902 24.8842 202.978 25.4499 202.851 25.1729C202.817 25.1036 202.886 24.0876 202.851 24.0183C205.657 22.8983 206.119 22.4019 208.624 20.5546C211.799 18.2108 211.349 20.4045 212.088 17.0909C212.942 13.2693 217.976 14.9087 215.39 13.096L215.69 12.6804C217.527 13.9487 218.881 15.7996 219.535 17.9337C219.534 17.94 219.535 17.9463 219.537 17.9523C219.539 17.9583 219.542 17.9638 219.546 17.9684C219.74 18.941 219.817 19.9332 219.777 20.9241Z" fill="#008236"/>
<path d="M662.517 369.649H640.97L631.169 318.867C631.02 318.095 631.044 317.3 631.238 316.538C631.433 315.776 631.793 315.067 632.293 314.46C632.794 313.854 633.422 313.366 634.133 313.031C634.844 312.696 635.621 312.522 636.407 312.522H667.08C667.866 312.522 668.643 312.696 669.354 313.031C670.065 313.366 670.693 313.854 671.194 314.46C671.694 315.067 672.054 315.776 672.249 316.538C672.443 317.3 672.466 318.095 672.318 318.867L662.517 369.649Z" fill="#F2F2F2"/>
<path d="M532.486 369.984C532.346 370.047 510.798 370.047 510.939 370.11C503.196 357.285 500.194 346.445 499.201 338.511C498.983 336.694 499.152 334.852 499.697 333.106C500.242 331.359 501.15 329.747 502.362 328.377C503.574 327.006 505.062 325.908 506.729 325.153C508.396 324.399 510.204 324.006 512.034 324L531.538 323.886C533.244 323.875 534.935 324.199 536.515 324.841C538.096 325.483 539.534 326.431 540.748 327.629C541.962 328.827 542.928 330.253 543.591 331.825C544.254 333.396 544.601 335.083 544.612 336.789C544.655 346.431 542.499 359.648 532.486 369.984Z" fill="#F2F2F2"/>
<path d="M521.352 325.53C522.407 316.969 521.981 308.289 520.094 299.872C519.779 298.459 517.609 299.057 517.924 300.47C519.751 308.694 520.149 317.171 519.102 325.53C518.924 326.964 521.175 326.951 521.352 325.53Z" fill="#F2F2F2"/>
<path d="M524.365 326.09C524.871 318.951 526.656 311.961 529.635 305.453C530.234 304.146 528.295 303.001 527.692 304.317C524.539 311.181 522.65 318.556 522.115 326.09C522.012 327.535 524.262 327.529 524.365 326.09Z" fill="#F2F2F2"/>
<path d="M518.069 325.86C517.415 317.866 515.126 310.092 511.344 303.02C510.66 301.742 508.717 302.878 509.401 304.155C513.001 310.875 515.186 318.262 515.819 325.86C515.937 327.293 518.188 327.305 518.069 325.86Z" fill="#F2F2F2"/>
<path d="M510.541 302.273C509.258 301.805 509.113 299.847 508.814 298.722C508.609 297.858 508.279 297.029 507.834 296.261C507.322 295.495 506.739 294.78 506.092 294.126C505.562 293.641 505.131 293.057 504.825 292.407C504.731 292.157 504.705 291.888 504.749 291.625C504.792 291.512 504.823 291.395 504.843 291.276L504.86 291.238C504.93 291.1 504.824 291.12 504.54 291.298C504.54 291.315 505.084 291.616 505.141 291.659C506.695 292.875 507.883 294.496 508.575 296.344C509.267 298.191 509.436 300.194 509.063 302.131C508.772 303.545 510.94 304.149 511.233 302.729C511.723 300.314 511.517 297.808 510.64 295.505C509.762 293.201 508.249 291.194 506.276 289.716C505.767 289.295 505.125 289.066 504.463 289.07C504.067 289.113 503.693 289.272 503.386 289.526C503.079 289.78 502.854 290.119 502.739 290.5C502.547 291.016 502.466 291.567 502.5 292.116C502.535 292.665 502.685 293.201 502.941 293.688C503.876 295.551 505.811 296.62 506.458 298.671C507.177 300.947 507.372 303.505 509.943 304.443C510.231 304.519 510.537 304.48 510.796 304.333C511.054 304.186 511.245 303.943 511.327 303.657C511.4 303.369 511.359 303.065 511.212 302.807C511.066 302.549 510.825 302.358 510.541 302.273Z" fill="#F2F2F2"/>
<path d="M519.561 299.267C518.227 298.783 518.098 296.973 517.738 295.808C517.075 294.069 516.085 292.473 514.822 291.105C514.313 290.555 513.95 289.886 513.766 289.158C513.746 289.019 513.742 288.877 513.756 288.736C513.77 288.601 513.883 288.392 513.863 288.27L513.88 288.231C513.951 288.094 513.844 288.114 513.56 288.291C513.625 288.315 513.689 288.344 513.751 288.376C513.92 288.521 514.135 288.63 514.312 288.771C515.74 289.92 516.842 291.421 517.511 293.126C518.277 295.029 518.475 297.112 518.084 299.125C517.792 300.538 519.961 301.142 520.253 299.723C520.732 297.363 520.547 294.916 519.719 292.655C518.891 290.394 517.453 288.406 515.564 286.913C515.108 286.513 514.56 286.231 513.969 286.093C513.575 286.024 513.168 286.079 512.807 286.252C512.446 286.425 512.148 286.706 511.954 287.057C511.687 287.564 511.533 288.123 511.504 288.696C511.474 289.268 511.57 289.84 511.783 290.372C512.579 292.415 514.548 293.712 515.343 295.744C515.763 296.819 515.938 297.971 516.396 299.034C516.628 299.595 516.977 300.099 517.419 300.513C517.862 300.928 518.388 301.242 518.963 301.436C520.327 301.931 520.914 299.757 519.561 299.267Z" fill="#F2F2F2"/>
<path d="M529.572 304.373C528.704 302.768 529.918 300.862 530.422 299.322C530.965 297.664 530.883 295.931 531.271 294.25C531.378 293.564 531.724 292.94 532.249 292.486C532.392 292.378 532.844 292.256 532.488 292.205C532.227 292.168 532.354 292.212 532.424 292.463C532.527 292.846 532.598 293.237 532.635 293.633C532.806 295.369 532.56 297.121 531.918 298.743C531.232 300.51 530.076 302.055 528.575 303.212C528.325 303.368 528.143 303.615 528.068 303.901C527.993 304.187 528.03 304.491 528.172 304.751C528.324 305.007 528.57 305.193 528.858 305.268C529.147 305.344 529.453 305.303 529.711 305.154C531.531 303.788 532.962 301.969 533.862 299.877C534.761 297.786 535.098 295.496 534.838 293.235C534.693 292.103 534.484 290.591 533.243 290.147C532.027 289.713 530.793 290.594 530.072 291.523C528.726 293.257 528.976 295.516 528.567 297.551C528.018 300.28 526.124 302.726 527.629 305.509C528.318 306.783 530.261 305.648 529.572 304.373Z" fill="#F2F2F2"/>
<path d="M520.051 291.344C519.118 289.634 520.037 287.715 520.501 286C520.786 284.299 521.166 282.617 521.641 280.959C521.865 280.337 522.271 279.795 522.806 279.407C522.913 279.339 523.025 279.278 523.14 279.226C523.128 279.15 522.799 279.178 522.81 279.153C522.841 279.311 522.887 279.467 522.947 279.617C523.037 280.007 523.098 280.404 523.132 280.803C523.264 282.475 523.012 284.154 522.396 285.714C521.711 287.48 520.555 289.026 519.054 290.182C518.803 290.339 518.622 290.586 518.547 290.872C518.472 291.158 518.509 291.462 518.651 291.722C518.803 291.978 519.049 292.164 519.337 292.239C519.625 292.315 519.932 292.274 520.19 292.125C521.997 290.769 523.422 288.967 524.323 286.895C525.224 284.823 525.571 282.552 525.329 280.305C525.198 279.232 525.039 277.827 523.99 277.232C522.84 276.579 521.52 277.395 520.727 278.244C519.204 279.877 519.025 282.149 518.607 284.233C518.046 287.033 516.599 289.713 518.108 292.48C518.801 293.751 520.745 292.617 520.051 291.344Z" fill="#F2F2F2"/>
<path d="M526.775 312.837C527.583 311.522 529.223 311.39 530.612 311.143C531.481 311.002 532.335 310.783 533.164 310.487C534.065 310.151 534.931 309.727 535.84 309.414C536.599 309.075 537.45 309 538.257 309.201C538.302 309.217 538.81 309.496 538.83 309.486C538.902 309.447 538.707 309.19 538.724 309.189C538.713 309.19 538.634 309.306 538.617 309.318C538.274 309.554 537.988 309.896 537.645 310.144C536.24 311.152 534.615 311.811 532.904 312.066C531.01 312.361 529.07 312.129 527.299 311.393C527.039 311.252 526.735 311.216 526.449 311.291C526.163 311.366 525.917 311.547 525.759 311.797C525.611 312.055 525.57 312.361 525.646 312.649C525.721 312.937 525.907 313.184 526.163 313.336C528.309 314.261 530.664 314.593 532.983 314.298C535.301 314.004 537.498 313.093 539.345 311.66C540.261 310.939 541.278 309.976 540.892 308.69C540.535 307.499 539.047 306.972 537.936 306.854C535.514 306.596 533.382 308.237 531.102 308.759C528.722 309.304 526.248 309.398 524.832 311.702C524.072 312.939 526.017 314.07 526.775 312.837Z" fill="#F2F2F2"/>
<path d="M520.867 299.151C519.992 297.114 519.893 294.826 520.591 292.721C521.288 290.617 522.733 288.84 524.651 287.729C524.738 287.679 524.826 287.63 524.915 287.583C525.08 287.555 525.105 287.517 524.99 287.468C525.174 286.849 524.919 287.335 524.851 287.492C524.647 287.968 524.44 288.443 524.23 288.917C523.761 289.974 523.279 291.026 522.785 292.073C521.768 294.23 520.703 296.367 519.538 298.449C518.83 299.714 520.773 300.85 521.481 299.585C522.609 297.569 523.642 295.501 524.631 293.413C525.115 292.392 525.587 291.366 526.047 290.334C526.249 289.88 526.449 289.426 526.646 288.971C526.922 288.484 527.11 287.953 527.2 287.401C527.2 287.1 527.137 286.803 527.014 286.528C526.891 286.253 526.712 286.008 526.488 285.807C526.264 285.606 526 285.455 525.714 285.363C525.427 285.271 525.125 285.24 524.826 285.273C523.719 285.56 522.706 286.131 521.887 286.929C520.23 288.312 519.007 290.143 518.362 292.202C517.561 294.876 517.761 297.75 518.925 300.287C519.077 300.543 519.323 300.729 519.611 300.804C519.899 300.88 520.206 300.839 520.464 300.69C520.716 300.535 520.898 300.288 520.974 300.001C521.049 299.715 521.011 299.41 520.867 299.151Z" fill="#F2F2F2"/>
<path d="M512.82 310.181C511.205 310.905 509.233 309.522 507.786 308.929C506.168 308.265 504.438 308.2 502.789 307.672C502.168 307.503 501.625 307.124 501.252 306.6C501.202 306.494 501.143 306.392 501.076 306.295C501.133 306.308 500.834 306.494 500.963 306.467C501.078 306.444 501.193 306.415 501.309 306.395C501.726 306.328 502.148 306.293 502.571 306.292C504.376 306.267 506.158 306.696 507.753 307.54C509.349 308.384 510.706 309.616 511.701 311.122C512.481 312.336 514.43 311.209 513.644 309.987C512.402 308.074 510.681 306.521 508.652 305.481C506.622 304.441 504.356 303.952 502.078 304.062C500.951 304.134 499.571 304.259 498.992 305.386C498.4 306.537 499.262 307.945 500.121 308.712C501.769 310.182 504.045 310.103 506.052 310.692C507.391 311.084 508.597 311.813 509.914 312.265C511.227 312.754 512.68 312.703 513.956 312.123C514.212 311.971 514.398 311.724 514.473 311.436C514.549 311.148 514.508 310.842 514.359 310.584C514.204 310.332 513.957 310.149 513.671 310.074C513.384 309.999 513.079 310.037 512.82 310.181Z" fill="#F2F2F2"/>
<path d="M789.273 369.531C789.132 369.594 767.584 369.594 767.725 369.656C759.982 356.831 756.981 345.991 755.987 338.058C755.769 336.241 755.938 334.399 756.483 332.652C757.028 330.906 757.936 329.294 759.148 327.923C760.36 326.553 761.849 325.454 763.516 324.7C765.183 323.946 766.99 323.553 768.82 323.547L788.324 323.433C790.03 323.421 791.721 323.746 793.302 324.388C794.882 325.03 796.32 325.977 797.534 327.176C798.749 328.374 799.715 329.8 800.378 331.371C801.041 332.943 801.387 334.63 801.398 336.336C801.442 345.977 799.285 359.195 789.273 369.531Z" fill="#F2F2F2"/>
<path d="M778.138 325.077C779.193 316.515 778.768 307.836 776.88 299.418C776.565 298.006 774.396 298.604 774.711 300.017C776.538 308.241 776.936 316.718 775.888 325.077C775.71 326.51 777.962 326.497 778.138 325.077Z" fill="#F2F2F2"/>
<path d="M781.151 325.637C781.658 318.498 783.443 311.508 786.421 305C787.02 303.693 785.082 302.548 784.478 303.864C781.326 310.728 779.436 318.103 778.901 325.637C778.798 327.082 781.049 327.075 781.151 325.637Z" fill="#F2F2F2"/>
<path d="M774.855 325.407C774.202 317.413 771.913 309.639 768.13 302.566C767.447 301.289 765.504 302.424 766.187 303.702C769.788 310.422 771.972 317.809 772.605 325.407C772.724 326.839 774.975 326.852 774.855 325.407Z" fill="#F2F2F2"/>
<path d="M767.327 301.82C766.044 301.352 765.899 299.394 765.6 298.269C765.395 297.405 765.065 296.576 764.62 295.807C764.109 295.042 763.526 294.327 762.878 293.673C762.348 293.187 761.918 292.603 761.611 291.953C761.517 291.704 761.491 291.434 761.536 291.172C761.578 291.059 761.609 290.942 761.63 290.823L761.646 290.784C761.717 290.647 761.61 290.667 761.326 290.844C761.326 290.861 761.87 291.163 761.927 291.206C763.481 292.422 764.669 294.042 765.361 295.89C766.053 297.738 766.222 299.74 765.85 301.678C765.558 303.091 767.727 303.695 768.019 302.276C768.509 299.86 768.303 297.355 767.426 295.051C766.549 292.748 765.036 290.741 763.063 289.263C762.553 288.841 761.911 288.613 761.25 288.617C760.854 288.66 760.479 288.818 760.172 289.072C759.866 289.327 759.641 289.666 759.525 290.047C759.333 290.563 759.252 291.113 759.287 291.662C759.322 292.212 759.472 292.747 759.727 293.235C760.662 295.098 762.598 296.167 763.245 298.218C763.963 300.494 764.159 303.052 766.729 303.989C767.017 304.066 767.323 304.026 767.582 303.88C767.841 303.733 768.032 303.49 768.113 303.204C768.186 302.916 768.145 302.611 767.999 302.353C767.852 302.095 767.612 301.904 767.327 301.82Z" fill="#F2F2F2"/>
<path d="M776.348 298.813C775.013 298.329 774.885 296.52 774.524 295.355C773.861 293.616 772.871 292.019 771.608 290.652C771.099 290.102 770.736 289.432 770.553 288.705C770.532 288.565 770.528 288.424 770.542 288.283C770.556 288.148 770.669 287.939 770.65 287.816L770.666 287.778C770.737 287.64 770.63 287.66 770.346 287.838C770.411 287.862 770.475 287.89 770.537 287.923C770.707 288.068 770.921 288.176 771.099 288.318C772.526 289.466 773.629 290.967 774.298 292.673C775.063 294.575 775.262 296.658 774.87 298.671C774.579 300.085 776.747 300.689 777.04 299.269C777.518 296.909 777.333 294.463 776.506 292.202C775.678 289.941 774.239 287.953 772.35 286.46C771.894 286.059 771.347 285.777 770.756 285.639C770.361 285.57 769.955 285.626 769.594 285.799C769.232 285.972 768.934 286.253 768.74 286.603C768.473 287.111 768.32 287.67 768.29 288.242C768.261 288.815 768.356 289.387 768.57 289.918C769.366 291.961 771.335 293.259 772.129 295.29C772.55 296.366 772.724 297.518 773.182 298.581C773.414 299.141 773.763 299.646 774.206 300.06C774.648 300.474 775.175 300.789 775.749 300.983C777.113 301.477 777.7 299.304 776.348 298.813Z" fill="#F2F2F2"/>
<path d="M786.358 303.92C785.49 302.314 786.704 300.409 787.208 298.869C787.751 297.211 787.67 295.478 788.057 293.796C788.164 293.111 788.511 292.486 789.036 292.033C789.178 291.925 789.631 291.802 789.274 291.752C789.013 291.715 789.14 291.759 789.21 292.01C789.313 292.393 789.384 292.784 789.421 293.179C789.592 294.915 789.346 296.667 788.704 298.29C788.018 300.056 786.863 301.601 785.362 302.758C785.111 302.915 784.93 303.162 784.855 303.448C784.78 303.734 784.817 304.038 784.958 304.297C785.11 304.553 785.357 304.739 785.645 304.815C785.933 304.89 786.239 304.849 786.497 304.701C788.318 303.334 789.749 301.515 790.648 299.424C791.548 297.333 791.884 295.043 791.624 292.781C791.48 291.65 791.271 290.138 790.029 289.694C788.814 289.26 787.579 290.141 786.858 291.069C785.513 292.803 785.762 295.063 785.353 297.098C784.804 299.827 782.911 302.273 784.415 305.055C785.104 306.33 787.048 305.195 786.358 303.92Z" fill="#F2F2F2"/>
<path d="M776.837 290.891C775.904 289.181 776.824 287.262 777.288 285.546C777.572 283.846 777.953 282.163 778.427 280.506C778.651 279.883 779.057 279.342 779.593 278.953C779.699 278.885 779.811 278.825 779.926 278.772C779.915 278.696 779.585 278.725 779.597 278.699C779.628 278.858 779.673 279.013 779.733 279.164C779.823 279.554 779.885 279.95 779.918 280.35C780.05 282.021 779.799 283.701 779.183 285.261C778.497 287.027 777.341 288.572 775.84 289.729C775.59 289.886 775.408 290.133 775.333 290.419C775.258 290.705 775.295 291.009 775.437 291.268C775.589 291.524 775.836 291.71 776.124 291.786C776.412 291.861 776.718 291.82 776.976 291.672C778.784 290.316 780.208 288.514 781.109 286.442C782.01 284.369 782.357 282.098 782.116 279.852C781.984 278.779 781.826 277.373 780.777 276.778C779.626 276.126 778.306 276.942 777.514 277.791C775.99 279.423 775.811 281.696 775.393 283.78C774.832 286.58 773.385 289.26 774.894 292.026C775.588 293.298 777.531 292.164 776.837 290.891Z" fill="#F2F2F2"/>
<path d="M783.561 312.384C784.37 311.069 786.009 310.937 787.398 310.69C788.267 310.549 789.121 310.329 789.951 310.034C790.851 309.698 791.717 309.274 792.627 308.961C793.385 308.621 794.236 308.546 795.043 308.748C795.089 308.763 795.597 309.043 795.616 309.032C795.689 308.994 795.493 308.736 795.51 308.736C795.499 308.736 795.421 308.852 795.404 308.864C795.06 309.101 794.774 309.443 794.432 309.691C793.026 310.699 791.401 311.357 789.691 311.612C787.796 311.908 785.856 311.675 784.085 310.94C783.825 310.799 783.521 310.762 783.236 310.837C782.95 310.912 782.703 311.093 782.546 311.344C782.397 311.602 782.356 311.908 782.432 312.196C782.507 312.484 782.693 312.731 782.949 312.883C785.096 313.807 787.451 314.14 789.769 313.845C792.087 313.55 794.284 312.639 796.131 311.207C797.048 310.485 798.064 309.523 797.679 308.237C797.322 307.045 795.833 306.519 794.722 306.401C792.3 306.142 790.168 307.783 787.888 308.305C785.508 308.85 783.035 308.945 781.618 311.248C780.858 312.485 782.803 313.617 783.561 312.384Z" fill="#F2F2F2"/>
<path d="M777.654 298.698C776.778 296.66 776.68 294.373 777.377 292.268C778.074 290.163 779.519 288.387 781.438 287.276C781.525 287.225 781.612 287.177 781.701 287.13C781.866 287.102 781.892 287.064 781.777 287.015C781.96 286.396 781.705 286.882 781.638 287.039C781.433 287.515 781.226 287.99 781.016 288.463C780.547 289.521 780.066 290.573 779.572 291.619C778.554 293.776 777.489 295.914 776.325 297.996C775.617 299.261 777.56 300.396 778.267 299.131C779.395 297.115 780.429 295.047 781.418 292.96C781.901 291.939 782.373 290.912 782.834 289.88C783.036 289.427 783.236 288.973 783.433 288.517C783.709 288.031 783.897 287.499 783.987 286.947C783.987 286.647 783.923 286.349 783.8 286.075C783.677 285.8 783.498 285.554 783.274 285.354C783.05 285.153 782.786 285.002 782.5 284.91C782.214 284.817 781.911 284.787 781.612 284.819C780.505 285.107 779.492 285.678 778.673 286.476C777.017 287.859 775.793 289.689 775.148 291.749C774.347 294.422 774.547 297.296 775.711 299.833C775.863 300.089 776.11 300.275 776.398 300.351C776.686 300.426 776.992 300.385 777.25 300.237C777.502 300.081 777.685 299.835 777.76 299.548C777.835 299.261 777.797 298.957 777.654 298.698Z" fill="#F2F2F2"/>
<path d="M769.606 309.727C767.991 310.452 766.02 309.069 764.573 308.475C762.955 307.811 761.224 307.747 759.575 307.218C758.954 307.049 758.411 306.671 758.039 306.147C757.988 306.04 757.929 305.938 757.862 305.841C757.919 305.855 757.62 306.04 757.749 306.014C757.864 305.99 757.979 305.962 758.095 305.941C758.513 305.874 758.935 305.84 759.358 305.839C761.162 305.813 762.944 306.243 764.54 307.087C766.135 307.931 767.493 309.163 768.487 310.669C769.268 311.883 771.216 310.756 770.43 309.533C769.188 307.621 767.467 306.067 765.438 305.027C763.409 303.988 761.142 303.498 758.865 303.608C757.737 303.68 756.357 303.805 755.778 304.932C755.187 306.083 756.049 307.492 756.908 308.258C758.555 309.728 760.832 309.65 762.839 310.238C764.178 310.63 765.383 311.359 766.7 311.812C768.013 312.3 769.467 312.249 770.742 311.67C770.998 311.518 771.184 311.271 771.26 310.983C771.335 310.695 771.294 310.389 771.146 310.13C770.99 309.878 770.744 309.695 770.457 309.62C770.17 309.545 769.866 309.583 769.606 309.727Z" fill="#F2F2F2"/>
<path d="M650.667 316.048C656.672 296.149 655.032 274.725 646.068 255.972C645.446 254.665 643.505 255.806 644.125 257.107C650.783 271.213 653.274 286.927 651.305 302.4C650.734 306.821 649.795 311.186 648.498 315.45C648.43 315.734 648.476 316.033 648.624 316.284C648.773 316.535 649.013 316.718 649.294 316.796C649.575 316.873 649.875 316.839 650.132 316.699C650.388 316.56 650.58 316.326 650.667 316.048Z" fill="#F2F2F2"/>
<path d="M654.198 290.883L670.335 269.576L668.239 269.008C668.528 276.259 667.437 283.499 665.023 290.343C662.936 296.237 659.333 303.927 652.08 304.163C650.636 304.211 650.629 306.461 652.08 306.413C659.797 306.161 664.047 299.073 666.552 292.659C669.472 285.129 670.811 277.078 670.489 269.008C670.481 268.765 670.395 268.531 670.244 268.34C670.093 268.149 669.885 268.012 669.65 267.949C669.416 267.885 669.167 267.899 668.94 267.987C668.714 268.075 668.522 268.234 668.392 268.44L652.255 289.747C651.381 290.901 653.334 292.024 654.198 290.883Z" fill="#F2F2F2"/>
<path d="M653.363 281.721L643.803 267.727C643.687 267.543 643.52 267.395 643.323 267.303C643.125 267.21 642.905 267.176 642.689 267.204C642.473 267.232 642.269 267.322 642.102 267.462C641.935 267.603 641.812 267.788 641.747 267.996C639.739 273.258 639.666 279.062 641.54 284.373C643.414 289.684 647.114 294.156 651.98 296.992C652.237 297.131 652.538 297.164 652.819 297.085C653.1 297.007 653.339 296.822 653.487 296.57C653.634 296.318 653.678 296.018 653.609 295.735C653.539 295.451 653.363 295.205 653.116 295.049C648.678 292.463 645.312 288.374 643.625 283.523C641.938 278.671 642.041 273.376 643.917 268.594L641.86 268.863L651.421 282.857C652.232 284.045 654.183 282.921 653.363 281.721Z" fill="#F2F2F2"/>
<path d="M644.943 255.196C642.731 255.087 640.43 254.951 638.579 253.596C637.879 253.079 637.283 252.435 636.822 251.697C636.594 251.344 636.4 250.971 636.242 250.581C636.077 250.209 635.977 249.811 635.947 249.405C635.947 249.513 636.054 249.318 635.951 249.404L635.789 249.532C635.731 249.61 635.646 249.664 635.551 249.684C635.456 249.703 635.356 249.687 635.272 249.638C635.097 249.66 635.218 249.366 635.186 249.89C635.089 250.451 635.086 251.024 635.179 251.586C635.243 251.859 635.364 252.115 635.532 252.338C635.701 252.562 635.914 252.748 636.159 252.884C636.404 253.02 636.674 253.104 636.953 253.13C637.232 253.156 637.513 253.124 637.778 253.035C638.155 252.894 638.52 252.722 638.868 252.522L638.969 252.47C639.093 252.412 639.104 252.407 639 252.457C639.086 252.312 639.135 252.596 638.992 252.433L639.087 252.432L638.972 252.425C638.91 252.413 638.851 252.387 638.8 252.349C638.749 252.311 638.707 252.262 638.678 252.206C638.641 252.094 638.635 252.077 638.66 252.157C638.695 252.206 638.697 252.43 638.679 252.212C638.685 252.285 638.685 252.359 638.686 252.432C638.687 252.62 638.675 252.807 638.675 252.995C638.651 253.462 638.753 253.927 638.97 254.341C639.141 254.62 639.384 254.848 639.675 255C639.965 255.152 640.291 255.222 640.618 255.203C641.353 255.169 641.769 254.656 642.389 254.377C642.526 254.307 642.682 254.285 642.833 254.314C642.985 254.343 643.122 254.422 643.223 254.537C643.304 254.64 643.355 254.763 643.37 254.892C643.386 255.022 643.366 255.153 643.313 255.272C643.169 255.531 643.131 255.836 643.207 256.122C643.282 256.409 643.464 256.655 643.716 256.811C643.975 256.959 644.281 256.999 644.568 256.924C644.856 256.848 645.103 256.663 645.255 256.407C645.507 255.959 645.635 255.452 645.627 254.938C645.62 254.424 645.477 253.921 645.213 253.48C644.949 253.039 644.573 252.675 644.124 252.426C643.674 252.176 643.167 252.05 642.653 252.059C642.31 252.064 641.971 252.13 641.651 252.255C641.257 252.383 640.895 252.593 640.589 252.872C640.191 253.367 640.466 252.86 640.483 252.962C640.481 252.951 640.883 253.185 640.913 253.205L640.952 253.307C640.923 253.182 640.918 253.185 640.936 253.317C640.935 253.21 640.924 253.102 640.925 252.995C640.962 252.498 640.926 251.998 640.815 251.511C640.722 251.2 640.55 250.919 640.316 250.695C640.082 250.471 639.793 250.311 639.479 250.232C638.874 250.135 638.254 250.258 637.733 250.579C637.533 250.696 637.328 250.802 637.117 250.897C637.302 250.826 637.056 250.919 637.027 250.908C636.889 250.855 637.159 250.905 637.172 250.911C637.25 250.945 637.375 251.11 637.386 251.112C637.337 251.102 637.34 250.928 637.338 250.896C637.312 250.502 637.444 250.109 637.444 249.715C637.458 249.341 637.381 248.97 637.22 248.633C637.058 248.296 636.817 248.003 636.518 247.78C636.197 247.543 635.804 247.425 635.406 247.443C635.008 247.461 634.628 247.616 634.33 247.88C633.311 248.817 633.727 250.35 634.183 251.453C634.691 252.709 635.471 253.837 636.466 254.755C637.462 255.674 638.648 256.36 639.941 256.765C641.572 257.206 643.253 257.435 644.943 257.446C645.241 257.446 645.527 257.327 645.738 257.116C645.949 256.905 646.068 256.619 646.068 256.321C646.068 256.022 645.949 255.736 645.738 255.525C645.527 255.314 645.241 255.196 644.943 255.196Z" fill="#F2F2F2"/>
<path d="M645.899 256.3C646.107 254.196 646.348 251.956 647.685 250.229C648.268 249.484 648.993 248.863 649.818 248.401C650.194 248.185 650.592 248.008 651.004 247.873C651.235 247.798 651.469 247.746 651.703 247.682C652.116 247.569 651.625 247.67 651.836 247.654C651.896 247.648 651.956 247.646 652.016 247.647C652.158 247.656 652.176 247.655 652.07 247.645C652.234 247.551 652.182 247.747 652.109 247.647L652.042 247.598C651.96 247.52 651.904 247.418 651.882 247.306C651.861 247.195 651.875 247.079 651.922 246.976C651.909 246.832 652.16 246.944 651.796 246.886C651.206 246.746 650.596 246.711 649.994 246.784C649.715 246.833 649.45 246.94 649.215 247.099C648.981 247.258 648.783 247.464 648.633 247.705C648.484 247.946 648.388 248.215 648.35 248.496C648.312 248.777 648.334 249.062 648.414 249.334C648.555 249.737 648.722 250.131 648.914 250.512C648.841 250.334 648.919 250.542 648.932 250.588C648.974 250.727 648.902 250.78 648.948 250.62C648.958 250.545 648.98 250.472 649.013 250.404C649.048 250.348 649.096 250.301 649.152 250.267C649.283 250.219 649.286 250.213 649.161 250.25C649.178 250.222 649.425 250.254 649.163 250.243C649.057 250.239 648.951 250.242 648.845 250.237C648.682 250.228 648.519 250.21 648.357 250.202C647.884 250.157 647.408 250.248 646.986 250.464C646.667 250.654 646.414 250.938 646.263 251.277C646.111 251.617 646.068 251.994 646.139 252.359C646.331 252.893 646.576 253.407 646.868 253.893C646.911 254.027 646.913 254.171 646.872 254.305C646.831 254.44 646.75 254.559 646.64 254.646C646.53 254.733 646.395 254.785 646.255 254.793C646.115 254.802 645.975 254.767 645.855 254.694C644.59 253.987 643.454 255.929 644.719 256.637C645.174 256.91 645.694 257.055 646.224 257.055C646.754 257.055 647.274 256.91 647.729 256.637C648.183 256.364 648.555 255.972 648.803 255.504C649.052 255.036 649.169 254.509 649.14 253.98C649.041 253.293 648.788 252.637 648.4 252.062C648.4 252.062 648.28 251.871 648.328 251.886C648.62 251.98 648.181 252.345 648.121 252.407L648.015 252.454C648.14 252.426 648.133 252.425 647.995 252.449C648.098 252.444 648.2 252.445 648.303 252.449C648.818 252.519 649.341 252.501 649.85 252.396C650.157 252.307 650.437 252.141 650.662 251.914C650.887 251.687 651.051 251.406 651.138 251.099C651.249 250.472 651.134 249.826 650.811 249.276C650.776 249.2 650.595 248.786 650.65 248.937C650.643 248.918 650.556 248.636 650.56 248.635C650.672 248.634 650.441 249.022 650.577 248.748C650.734 248.43 650.423 249.081 650.401 248.995C650.392 248.96 650.611 248.972 650.621 248.972C651.015 248.982 651.4 249.121 651.796 249.136C652.179 249.164 652.564 249.093 652.913 248.931C653.262 248.77 653.564 248.522 653.791 248.211C654.024 247.883 654.136 247.483 654.107 247.081C654.078 246.679 653.911 246.3 653.633 246.007C652.715 245.07 651.22 245.4 650.133 245.798C648.903 246.244 647.778 246.939 646.828 247.839C645.786 248.846 644.994 250.084 644.517 251.453C644.031 253.027 643.739 254.655 643.649 256.3C643.651 256.598 643.77 256.883 643.981 257.093C644.191 257.304 644.476 257.423 644.774 257.425C645.07 257.419 645.353 257.298 645.562 257.088C645.772 256.879 645.893 256.596 645.899 256.3Z" fill="#F2F2F2"/>
<path d="M645.801 253.947C644.847 252.15 643.704 250.459 642.394 248.903C642.087 248.537 641.77 248.179 641.444 247.829C641.142 247.55 640.863 247.247 640.611 246.922C640.563 246.842 640.574 246.799 640.547 246.781C640.527 246.703 640.526 246.698 640.543 246.766C640.561 246.811 640.562 246.861 640.546 246.906C640.56 246.995 640.457 246.977 640.556 246.891C640.378 247.045 640.24 247.189 639.959 247.103C639.854 247.071 639.784 246.957 639.703 246.914C639.625 246.872 639.725 246.878 639.704 246.942C639.66 247.071 639.544 247.364 639.474 247.536L641.644 248.134C641.672 247.995 641.775 247.856 641.641 248.016C641.691 247.958 641.745 247.903 641.803 247.853C641.731 247.914 641.75 247.906 641.862 247.831C641.707 247.889 642.029 247.782 642.033 247.781C641.815 247.827 642.33 247.826 642.142 247.787C642.345 247.841 642.532 247.943 642.687 248.086C642.842 248.228 642.96 248.405 643.031 248.603C643.262 249.214 643.362 249.867 643.324 250.52C643.329 251.265 643.252 252.009 643.095 252.738C643.023 253.026 643.064 253.33 643.211 253.588C643.357 253.846 643.597 254.037 643.881 254.122C644.169 254.199 644.475 254.159 644.733 254.012C644.992 253.865 645.183 253.623 645.265 253.337C645.715 251.238 645.929 248.522 644.488 246.747C644.178 246.349 643.775 246.033 643.316 245.824C642.856 245.616 642.353 245.522 641.849 245.55C641.295 245.589 640.767 245.802 640.341 246.159C639.914 246.515 639.611 246.997 639.474 247.536C639.395 247.823 639.433 248.131 639.58 248.39C639.727 248.65 639.972 248.84 640.26 248.919C640.547 248.999 640.855 248.96 641.114 248.813C641.374 248.666 641.564 248.421 641.644 248.134C641.832 247.77 641.931 247.366 641.931 246.956C641.931 246.546 641.834 246.142 641.646 245.778C641.45 245.441 641.151 245.177 640.792 245.026C640.434 244.875 640.035 244.844 639.658 244.939C639.282 245.064 638.952 245.3 638.712 245.616C638.473 245.932 638.335 246.313 638.316 246.709C638.313 247.07 638.383 247.427 638.521 247.761C638.659 248.094 638.863 248.396 639.12 248.648C639.973 249.623 640.881 250.525 641.654 251.57C642.476 252.684 643.213 253.858 643.858 255.082C643.933 255.21 644.032 255.322 644.149 255.411C644.267 255.5 644.401 255.566 644.544 255.603C644.687 255.641 644.836 255.649 644.982 255.629C645.129 255.609 645.27 255.561 645.397 255.486C645.525 255.412 645.636 255.313 645.726 255.195C645.815 255.077 645.88 254.943 645.918 254.8C645.955 254.657 645.964 254.508 645.944 254.362C645.924 254.215 645.875 254.075 645.801 253.947Z" fill="#F2F2F2"/>
<path d="M842.42 368.712H356.417V370.712H842.42V368.712Z" fill="#F2F2F2"/>
<path d="M447.664 281.506C447.664 279.547 445.381 277.959 442.564 277.959C439.748 277.959 437.465 279.547 437.465 281.506C437.465 283.466 439.748 285.054 442.564 285.054C445.381 285.054 447.664 283.466 447.664 281.506Z" fill="#F2F2F2"/>
<path d="M410.193 293.036C413.009 293.036 415.292 291.448 415.292 289.488C415.292 287.529 413.009 285.941 410.193 285.941C407.376 285.941 405.093 287.529 405.093 289.488C405.093 291.448 407.376 293.036 410.193 293.036Z" fill="#F2F2F2"/>
<path d="M455.424 310.331C458.241 310.331 460.524 308.742 460.524 306.783C460.524 304.824 458.241 303.235 455.424 303.235C452.608 303.235 450.325 304.824 450.325 306.783C450.325 308.742 452.608 310.331 455.424 310.331Z" fill="#F2F2F2"/>
<path d="M468.844 318.488C468.595 318.513 468.343 318.491 468.102 318.422C467.558 318.168 467.092 317.771 466.754 317.274C466.416 316.778 466.217 316.199 466.18 315.599C466.032 314.973 466.079 314.317 466.313 313.718C466.548 313.119 466.959 312.606 467.492 312.246C467.637 312.172 467.794 312.123 467.956 312.101C469.188 311.928 470.381 313.227 470.62 314.99C470.858 316.752 470.063 318.316 468.844 318.488Z" fill="#F2F2F2"/>
<path d="M432.927 301.455C431.7 301.624 430.903 303.19 431.146 304.953C431.389 306.717 432.58 308.009 433.807 307.84C435.033 307.671 435.831 306.105 435.588 304.341C435.345 302.578 434.153 301.285 432.927 301.455Z" fill="#F2F2F2"/>
<path d="M450.304 294.11C450.061 292.346 448.869 291.054 447.643 291.223C446.416 291.392 445.619 292.958 445.862 294.722C446.105 296.485 447.296 297.778 448.522 297.609C449.749 297.439 450.547 295.873 450.304 294.11Z" fill="#F2F2F2"/>
<path d="M424.302 286.179C425.529 286.01 426.326 284.443 426.083 282.68C425.84 280.917 424.649 279.624 423.422 279.793C422.196 279.962 421.398 281.529 421.641 283.292C421.884 285.055 423.075 286.348 424.302 286.179Z" fill="#F2F2F2"/>
<path d="M428.65 312.805C428.64 311.461 427.065 310.383 425.133 310.398C423.201 310.413 421.643 311.515 421.653 312.859C421.664 314.203 423.238 315.28 425.17 315.266C427.102 315.251 428.66 314.149 428.65 312.805Z" fill="#F2F2F2"/>
<path d="M403.006 320.912C404.938 320.897 406.496 319.795 406.485 318.451C406.475 317.107 404.9 316.03 402.968 316.045C401.036 316.059 399.478 317.161 399.489 318.505C399.499 319.849 401.074 320.927 403.006 320.912Z" fill="#F2F2F2"/>
<path d="M434.126 332.537C436.058 332.522 437.615 331.421 437.605 330.077C437.595 328.733 436.02 327.655 434.088 327.67C432.156 327.685 430.598 328.786 430.608 330.13C430.619 331.474 432.193 332.552 434.126 332.537Z" fill="#F2F2F2"/>
<path d="M443.374 338.063C443.203 338.081 443.03 338.067 442.865 338.021C442.49 337.849 442.169 337.58 441.934 337.241C441.7 336.902 441.56 336.506 441.532 336.095C441.427 335.666 441.456 335.216 441.613 334.804C441.771 334.392 442.05 334.037 442.414 333.788C442.513 333.736 442.621 333.701 442.731 333.685C443.576 333.561 444.401 334.445 444.574 335.653C444.747 336.861 444.21 337.938 443.374 338.063Z" fill="#F2F2F2"/>
<path d="M418.646 326.567C417.805 326.69 417.266 327.769 417.442 328.977C417.618 330.185 418.442 331.066 419.283 330.943C420.123 330.821 420.662 329.742 420.486 328.534C420.31 327.325 419.486 326.445 418.646 326.567Z" fill="#F2F2F2"/>
<path d="M430.527 321.437C430.351 320.229 429.527 319.348 428.687 319.471C427.846 319.593 427.307 320.672 427.483 321.88C427.659 323.089 428.483 323.969 429.324 323.847C430.164 323.724 430.703 322.645 430.527 321.437Z" fill="#F2F2F2"/>
<path d="M412.649 316.133C413.489 316.011 414.028 314.932 413.852 313.724C413.676 312.516 412.852 311.635 412.011 311.758C411.171 311.88 410.632 312.959 410.808 314.167C410.984 315.376 411.808 316.256 412.649 316.133Z" fill="#F2F2F2"/>
<path d="M379.943 307.938C379.928 305.979 377.633 304.408 374.817 304.43C372 304.452 369.729 306.057 369.745 308.017C369.76 309.976 372.055 311.546 374.871 311.525C377.688 311.503 379.958 309.897 379.943 307.938Z" fill="#F2F2F2"/>
<path d="M342.562 319.755C345.378 319.734 347.649 318.128 347.634 316.169C347.619 314.21 345.324 312.639 342.507 312.661C339.691 312.682 337.42 314.288 337.435 316.247C337.45 318.206 339.745 319.777 342.562 319.755Z" fill="#F2F2F2"/>
<path d="M387.925 336.702C390.741 336.68 393.012 335.074 392.997 333.115C392.982 331.156 390.687 329.585 387.87 329.607C385.054 329.628 382.783 331.234 382.798 333.193C382.813 335.153 385.109 336.723 387.925 336.702Z" fill="#F2F2F2"/>
<path d="M401.407 344.756C401.158 344.783 400.906 344.763 400.664 344.696C400.118 344.445 399.65 344.052 399.308 343.558C398.966 343.064 398.763 342.487 398.721 341.888C398.569 341.263 398.61 340.606 398.84 340.006C399.07 339.405 399.477 338.888 400.007 338.525C400.152 338.449 400.308 338.399 400.47 338.375C401.701 338.194 402.904 339.483 403.156 341.244C403.408 343.005 402.625 344.575 401.407 344.756Z" fill="#F2F2F2"/>
<path d="M365.36 327.999C364.135 328.178 363.349 329.75 363.606 331.512C363.862 333.273 365.064 334.556 366.289 334.378C367.514 334.199 368.3 332.627 368.043 330.865C367.787 329.104 366.585 327.821 365.36 327.999Z" fill="#F2F2F2"/>
<path d="M382.68 320.521C382.423 318.759 381.222 317.476 379.997 317.655C378.771 317.833 377.986 319.405 378.243 321.167C378.499 322.928 379.7 324.212 380.926 324.033C382.151 323.855 382.936 322.282 382.68 320.521Z" fill="#F2F2F2"/>
<path d="M356.618 312.79C357.843 312.611 358.629 311.039 358.372 309.277C358.116 307.516 356.915 306.233 355.689 306.411C354.464 306.59 353.679 308.162 353.935 309.924C354.192 311.685 355.393 312.968 356.618 312.79Z" fill="#F2F2F2"/>
<path d="M411.471 299.808C411.471 314.081 377.697 288.588 348.856 308.652C313.66 333.135 284.235 315.665 284.239 299.808C284.243 285.535 313.721 256.964 348.855 256.964C383.989 256.964 411.471 285.535 411.471 299.808Z" fill="#F2F2F2"/>
<path d="M380.663 283.506C380.663 290.643 366.422 290.428 348.855 290.428C331.288 290.428 317.047 290.643 317.047 283.506C317.047 276.37 331.288 264.584 348.855 264.584C366.422 264.584 380.663 276.37 380.663 283.506Z" fill="#E6E6E6"/>
<path d="M129.938 331.262L129.893 341.278L169.367 346.222L169.434 331.439L129.938 331.262Z" fill="#945E4C"/>
<path d="M135.321 341.957L134.731 331.277L134.591 328.667L109.291 326.447L109.251 333.957L116.341 335.327L109.231 338.727L109.141 358.637C109.136 359.592 109.437 360.524 109.999 361.296C110.561 362.068 111.356 362.64 112.266 362.928C113.177 363.216 114.156 363.206 115.06 362.898C115.964 362.59 116.746 362.001 117.291 361.217L120.581 356.507L128.341 345.367L135.511 345.397L135.321 341.957Z" fill="#2F2E41"/>
<path d="M304.881 314.947C298.281 332.197 292.701 345.547 290.411 347.827C287.871 350.367 270.671 351.427 249.411 351.717C226.971 352.017 200.011 351.467 180.961 350.947H180.951C166.561 350.547 156.681 350.157 156.681 350.157L156.701 344.637L156.751 331.377L156.761 328.727C156.761 328.727 157.241 328.597 158.121 328.327C159.751 327.857 162.771 326.977 166.731 325.807C179.171 322.127 200.811 315.657 217.141 310.377C222.491 308.637 227.281 307.037 230.981 305.697C235.221 304.177 238.041 302.997 238.671 302.367C242.401 298.727 244.051 302.367 246.411 305.997C248.771 309.637 249.501 305.997 252.591 303.327C255.681 300.657 262.651 304.327 262.651 304.327C262.651 304.327 262.711 301.907 262.811 298.057C262.961 292.367 263.181 283.507 263.391 274.647C263.381 274.637 263.381 274.637 263.391 274.637C263.401 274.247 263.411 273.847 263.421 273.457C268.221 277.627 273.351 281.447 278.461 286.227C281.791 289.337 286.871 294.487 290.491 298.167C291.221 298.917 292.161 299.907 292.901 300.687C297.266 305.115 301.272 309.884 304.881 314.947Z" fill="#2F2E41"/>
<path d="M142.114 360.032L142.878 370.019L182.623 371.758L181.494 357.018L142.114 360.032Z" fill="#945E4C"/>
<path d="M148.341 370.257L146.901 359.667L146.541 357.067L121.141 356.897L121.711 364.387L128.881 365.177L122.081 369.147L123.601 389.007C123.675 389.958 124.05 390.862 124.673 391.585C125.296 392.308 126.133 392.813 127.064 393.026C127.994 393.24 128.968 393.15 129.844 392.771C130.72 392.391 131.451 391.741 131.931 390.917L141.671 374.217L148.811 373.677L148.341 370.257Z" fill="#2F2E41"/>
<path d="M313.341 356.377C305.321 368.917 206.531 381.177 169.441 374.217C169.511 373.217 169.621 372.207 169.751 371.197C170.301 366.757 171.331 362.227 172.191 357.727C172.551 355.837 172.891 353.947 173.151 352.067C174.401 351.867 173.031 351.997 174.671 351.737C176.75 351.368 178.846 351.104 180.951 350.947H180.961C181.601 350.897 182.321 350.847 183.171 350.787C202.061 349.497 226.111 354.937 242.991 345.687C247.761 343.067 248.061 342.327 248.761 341.497C252.821 336.637 253.211 340.657 256.711 342.397C260.211 344.137 259.571 341.087 260.551 338.427C261.531 335.767 265.861 336.117 268.371 335.727C266.041 333.567 267.571 333.187 263.721 331.337C258.041 328.597 248.631 324.557 241.971 321.867C241.95 321.853 241.926 321.842 241.901 321.837C239.091 320.757 235.131 319.047 232.601 317.977C230.641 317.147 227.221 315.587 226.141 315.177C223.761 314.267 219.651 322.867 217.141 321.377C216.251 320.837 215.571 320.417 215.231 320.217C211.001 317.687 214.321 319.007 213.881 315.937C213.821 315.557 213.991 314.577 213.941 314.247C213.831 313.467 214.091 312.167 213.711 311.697C213.321 311.237 212.031 313.557 211.221 313.897C210.861 314.057 209.441 315.167 208.281 315.047C203.281 314.497 199.881 309.617 198.151 304.727C183.591 298.417 173.971 283.677 171.681 269.917C169.741 258.297 173.191 249.017 176.241 241.367C178.981 234.507 179.831 235.457 182.871 230.557C182.781 229.677 182.781 229.907 182.781 229.967C182.781 229.877 182.761 229.517 182.701 228.337C182.541 225.177 182.161 215.847 181.981 211.497C183.236 210.104 184.649 208.862 186.191 207.797C190.921 204.277 198.001 202.257 203.171 201.267C209.061 200.137 216.691 200.947 220.951 201.567C227.591 202.527 229.791 203.817 235.331 205.117C235.341 215.667 237.541 212.727 236.461 226.407C235.371 240.087 273.351 281.447 278.461 286.227C281.791 289.337 286.871 294.487 290.491 298.167C291.221 298.917 292.161 299.907 292.901 300.687C297.141 305.157 305.751 316.237 306.161 316.897C306.681 317.727 306.901 318.377 307.321 319.177C307.331 319.197 321.351 343.837 313.341 356.377Z" fill="#2F2E41"/>
<path d="M443.651 243.98L441.605 279.878C441.604 280.789 441.783 281.691 442.131 282.533C442.479 283.375 442.99 284.14 443.634 284.784C444.278 285.429 445.043 285.939 445.885 286.288C446.727 286.636 447.63 286.815 448.541 286.814C468.203 296.832 474.341 297.113 491.958 286.814C492.869 286.815 493.771 286.636 494.613 286.288C495.455 285.939 496.22 285.429 496.864 284.784C497.508 284.14 498.019 283.375 498.368 282.533C498.716 281.691 498.895 280.789 498.894 279.878L496.848 243.11L498.894 233.392C498.895 232.481 498.716 231.578 498.367 230.736C498.019 229.894 497.508 229.129 496.864 228.485C496.22 227.841 495.455 227.33 494.613 226.982C493.771 226.634 492.869 226.455 491.957 226.456H448.541C447.63 226.455 446.727 226.634 445.885 226.982C445.043 227.33 444.278 227.841 443.634 228.485C442.99 229.129 442.479 229.894 442.131 230.736C441.782 231.578 441.604 232.481 441.605 233.392L443.651 243.98Z" fill="#E6E6E6"/>
<path d="M409.891 223.387L407.612 227.945L446.72 251.008L443.651 271.469L405.117 232.935L402.73 237.709L401.974 236.197C401.299 234.848 400.981 233.348 401.048 231.841C401.116 230.333 401.568 228.869 402.361 227.585C403.155 226.302 404.263 225.242 405.581 224.507C406.898 223.773 408.382 223.387 409.891 223.387Z" fill="#E6E6E6"/>
<path d="M454.904 226.967C454.904 232.901 462.229 237.709 471.272 237.709C480.316 237.709 487.64 232.901 487.64 226.967C487.64 226.793 487.63 226.63 487.62 226.456H454.924C454.914 226.63 454.904 226.793 454.904 226.967Z" fill="#F2F2F2"/>
<path d="M475.876 209.971C475.874 208.781 475.401 207.641 474.56 206.8C473.719 205.959 472.578 205.486 471.389 205.484H471.155C469.966 205.486 468.825 205.959 467.984 206.8C467.143 207.641 466.67 208.781 466.669 209.971V241.29H475.876V209.971Z" fill="#E6E6E6"/>
<path d="M294.137 264.871C293.561 264.207 292.854 263.669 292.06 263.291C291.266 262.913 290.403 262.703 289.524 262.674C289.524 262.674 257.765 258.857 253.073 255.633C251.485 255.582 249.935 256.127 248.727 257.159C247.519 258.191 246.74 259.637 246.543 261.214L216.265 266.92C214.834 267.193 213.57 268.023 212.75 269.226C211.93 270.43 211.622 271.91 211.891 273.341C212.161 274.772 212.987 276.038 214.189 276.861C215.391 277.683 216.87 277.996 218.302 277.73L248.425 272.053C248.996 273.388 250.005 274.488 251.285 275.172C252.566 275.855 254.041 276.082 255.468 275.814L289.388 269.421C294.225 268.51 297.362 268.59 294.137 264.871Z" fill="#E6E6E6"/>
<path d="M205.225 214.731L197.906 143.845C197.604 140.841 198.496 137.839 200.389 135.487C202.282 133.135 205.023 131.621 208.022 131.273C209.574 131.092 211.146 131.23 212.642 131.677C214.139 132.124 215.529 132.871 216.727 133.872C217.926 134.874 218.907 136.109 219.613 137.503C220.318 138.896 220.733 140.419 220.83 141.977L226.176 215.843L231.316 260.589C233.294 261.17 235.045 262.345 236.332 263.955C237.619 265.565 238.379 267.532 238.508 269.589C238.638 271.646 238.131 273.693 237.057 275.452C235.983 277.211 234.393 278.597 232.504 279.421C230.615 280.245 228.518 280.468 226.498 280.059C224.478 279.649 222.633 278.628 221.213 277.134C219.794 275.64 218.869 273.744 218.564 271.706C218.259 269.668 218.589 267.585 219.509 265.74L205.225 214.731Z" fill="#945E4C"/>
<path d="M192.884 158.962C192.298 158.506 191.878 157.87 191.688 157.151C191.499 156.433 191.551 155.673 191.835 154.987C192.17 154.134 192.231 153.197 192.008 152.308C191.963 152.137 191.907 151.968 191.84 151.804C191.411 150.826 191.225 149.758 191.298 148.692C191.371 147.627 191.699 146.594 192.256 145.683C194.133 142.709 194.673 138.512 194.662 134.835C194.649 130.812 194.418 126.729 195.369 122.819C196.741 117.18 201.08 111.742 208.168 113.134C211.173 113.772 213.866 115.427 215.794 117.82C219.89 122.769 220.789 129.288 221.589 135.533L222.48 132.905C223.235 139.741 225.362 146.355 228.735 152.348C227.184 152.255 226.383 154.428 227.065 155.824C227.747 157.221 229.225 158.002 230.517 158.866C232.146 159.954 233.775 161.674 232.664 163.813C232.384 164.317 232.003 164.757 231.544 165.107C231.086 165.457 230.56 165.708 230 165.844C219.47 168.653 208.473 169.253 197.7 167.608C195.308 167.241 192.715 166.636 191.241 164.716C189.768 162.796 190.48 159.246 192.884 158.962Z" fill="#008236"/>
</g>
<defs>
<clipPath id="clip0_11_2">
<rect width="842.42" height="393.14" fill="white"/>
</clipPath>
</defs>
</svg>
